<?xml version="1.0" encoding="UTF-8"?>
<svg version="1.1" xmlns="http://www.w3.org/2000/svg" width="512" height="512">
<path d="M0 0 C141.24 0 282.48 0 428 0 C428 231.07056799 428 231.07056799 405 257 C404.07767578 258.06541016 404.07767578 258.06541016 403.13671875 259.15234375 C389.5279564 273.86845721 368.68170541 282.27999215 349 284 C345.300265 284.13974724 341.60418571 284.14360022 337.90211487 284.14044189 C336.80471495 284.14341302 335.70731503 284.14638414 334.57666057 284.1494453 C330.90990459 284.15809698 327.24318139 284.15963757 323.57641602 284.16113281 C320.94275257 284.16576356 318.30909203 284.17076845 315.6754303 284.17617798 C308.52623194 284.18972321 301.37703922 284.19578037 294.22783017 284.20018864 C289.75648395 284.20295813 285.28513986 284.20719681 280.81379509 284.21169281 C268.41348818 284.22388165 256.01318298 284.23418098 243.61287022 284.2375679 C242.8201727 284.23778747 242.02747519 284.23800703 241.21075654 284.23823325 C240.41624819 284.23845153 239.62173984 284.23866981 238.80315548 284.2388947 C237.19339597 284.23933815 235.58363646 284.23978472 233.97387695 284.24023438 C233.17539425 284.2404558 232.37691156 284.24067723 231.55423241 284.24090537 C218.63314658 284.2448484 205.71211731 284.26228899 192.7910533 284.2855939 C179.49837984 284.30937378 166.20573468 284.3217728 152.91303962 284.32293582 C145.46059106 284.32384898 138.00821617 284.32951006 130.55578804 284.34775543 C124.20635639 284.36324647 117.85702119 284.36822441 111.50757421 284.36001733 C108.27502948 284.35614205 105.0427166 284.35855734 101.81018829 284.37107468 C73.25150039 284.47511084 49.08982397 280.59417974 27 261 C25.93458984 260.07767578 25.93458984 260.07767578 24.84765625 259.13671875 C10.01005448 245.41560979 2.79138074 225.53966516 0 206 C0 138.02 0 70.04 0 0 Z M203 59 C198.89579227 64.21345307 197.86928559 68.45923783 197.88647461 74.97387695 C197.88655014 75.93449539 197.88662567 76.89511383 197.88670349 77.88484192 C197.89186478 78.9089769 197.89702606 79.93311188 197.90234375 80.98828125 C197.90446617 82.57578438 197.90446617 82.57578438 197.90663147 84.19535828 C197.91221841 87.56776789 197.92476856 90.94011054 197.9375 94.3125 C197.94251669 96.60221258 197.9470793 98.89192621 197.95117188 101.18164062 C197.96218357 106.78778317 197.97890874 112.3938868 198 118 C197.12795677 117.99000725 197.12795677 117.99000725 196.23829651 117.97981262 C190.15444503 117.91313082 184.0706984 117.86806383 177.98657227 117.83520508 C175.71992776 117.82017492 173.45331206 117.79974518 171.18676758 117.77368164 C167.91740787 117.73704412 164.64843473 117.7202154 161.37890625 117.70703125 C160.37541641 117.69154739 159.37192657 117.67606354 158.33802795 117.66011047 C151.82020329 117.65857255 144.48458584 117.88306762 139.3764801 122.45222473 C135.31996907 127.19773423 134.64401156 130.39655814 134.72265625 136.4609375 C135.13376444 140.22460402 136.4828636 142.21790187 139 145 C144.21345307 149.10420773 148.45923783 150.13071441 154.97387695 150.11352539 C155.93449539 150.11344986 156.89511383 150.11337433 157.88484192 150.11329651 C158.9089769 150.10813522 159.93311188 150.10297394 160.98828125 150.09765625 C162.04661667 150.0962413 163.10495209 150.09482635 164.19535828 150.09336853 C167.56776789 150.08778159 170.94011054 150.07523144 174.3125 150.0625 C176.60221258 150.05748331 178.89192621 150.0529207 181.18164062 150.04882812 C186.78778317 150.03781643 192.3938868 150.02109126 198 150 C197.99333817 150.58136215 197.98667633 151.1627243 197.97981262 151.76170349 C197.91313082 157.84555497 197.86806383 163.9293016 197.83520508 170.01342773 C197.82017492 172.28007224 197.79974518 174.54668794 197.77368164 176.81323242 C197.73704412 180.08259213 197.7202154 183.35156527 197.70703125 186.62109375 C197.69154739 187.62458359 197.67606354 188.62807343 197.66011047 189.66197205 C197.65857255 196.17979671 197.88306762 203.51541416 202.45222473 208.6235199 C207.19773423 212.68003093 210.39655814 213.35598844 216.4609375 213.27734375 C220.22460402 212.86623556 222.21790187 211.5171364 225 209 C229.10420773 203.78654693 230.13071441 199.54076217 230.11352539 193.02612305 C230.11344986 192.06550461 230.11337433 191.10488617 230.11329651 190.11515808 C230.10813522 189.0910231 230.10297394 188.06688812 230.09765625 187.01171875 C230.0962413 185.95338333 230.09482635 184.89504791 230.09336853 183.80464172 C230.08778159 180.43223211 230.07523144 177.05988946 230.0625 173.6875 C230.05748331 171.39778742 230.0529207 169.10807379 230.04882812 166.81835938 C230.03781643 161.21221683 230.02109126 155.6061132 230 150 C230.87204323 150.00999275 230.87204323 150.00999275 231.76170349 150.02018738 C237.84555497 150.08686918 243.9293016 150.13193617 250.01342773 150.16479492 C252.28007224 150.17982508 254.54668794 150.20025482 256.81323242 150.22631836 C260.08259213 150.26295588 263.35156527 150.2797846 266.62109375 150.29296875 C267.62458359 150.30845261 268.62807343 150.32393646 269.66197205 150.33988953 C276.17979671 150.34142745 283.51541416 150.11693238 288.6235199 145.54777527 C292.68003093 140.80226577 293.35598844 137.60344186 293.27734375 131.5390625 C292.86623556 127.77539598 291.5171364 125.78209813 289 123 C283.78654693 118.89579227 279.54076217 117.86928559 273.02612305 117.88647461 C272.06550461 117.88655014 271.10488617 117.88662567 270.11515808 117.88670349 C268.57895561 117.89444542 268.57895561 117.89444542 267.01171875 117.90234375 C265.95338333 117.9037587 264.89504791 117.90517365 263.80464172 117.90663147 C260.43223211 117.91221841 257.05988946 117.92476856 253.6875 117.9375 C251.39778742 117.94251669 249.10807379 117.9470793 246.81835938 117.95117188 C241.21221683 117.96218357 235.6061132 117.97890874 230 118 C230.00666183 117.41863785 230.01332367 116.8372757 230.02018738 116.23829651 C230.08686918 110.15444503 230.13193617 104.0706984 230.16479492 97.98657227 C230.17982508 95.71992776 230.20025482 93.45331206 230.22631836 91.18676758 C230.26295588 87.91740787 230.2797846 84.64843473 230.29296875 81.37890625 C230.30845261 80.37541641 230.32393646 79.37192657 230.33988953 78.33802795 C230.34142745 71.82020329 230.11693238 64.48458584 225.54777527 59.3764801 C220.80226577 55.31996907 217.60344186 54.64401156 211.5390625 54.72265625 C207.77539598 55.13376444 205.78209813 56.4828636 203 59 Z " fill="#FEAB00" transform="translate(42,186)"/>
<path d="M0 0 C43.89 0 87.78 0 133 0 C131.01881199 3.96237601 128.70271415 7.49761934 126.1875 11.125 C125.70466553 11.82439697 125.22183105 12.52379395 124.72436523 13.24438477 C120.53067972 19.29151455 116.23194449 25.26026434 111.90893555 31.21533203 C108.23207256 36.28234103 104.59991426 41.3780741 101 46.5 C96.33878595 53.12933345 91.61055398 59.70728773 86.85546875 66.26953125 C83.20004216 71.32082479 79.58659492 76.39964407 76 81.5 C71.7017358 87.60881475 67.36808307 93.69088703 63 99.75 C62.45988281 100.50087891 61.91976562 101.25175781 61.36328125 102.02539062 C60.85152344 102.73373047 60.33976563 103.44207031 59.8125 104.171875 C59.36519531 104.7915918 58.91789063 105.41130859 58.45703125 106.04980469 C57.97621094 106.69336914 57.49539063 107.33693359 57 108 C56.56923157 108.85351547 56.13846313 109.70703094 55.69464111 110.58641052 C51.24064795 114.57585126 46.19498959 113.65259738 40.42871094 113.56762695 C38.49662781 113.56872215 38.49662781 113.56872215 36.5255127 113.56983948 C32.99658733 113.57127396 29.46851189 113.54188058 25.93978405 113.50696969 C22.25093585 113.47571072 18.56206811 113.47277584 14.87310791 113.46684265 C7.88902446 113.45130274 0.9053324 113.41027268 -6.07857871 113.3600952 C-14.03009723 113.30420601 -21.98163445 113.27671637 -29.9333005 113.25161803 C-46.28909611 113.19935661 -62.64449811 113.11141195 -79 113 C-77.73765777 109.75015087 -76.48692834 107.01820193 -74.41796875 104.20703125 C-73.90484131 103.50376709 -73.39171387 102.80050293 -72.86303711 102.07592773 C-72.03364624 100.95553101 -72.03364624 100.95553101 -71.1875 99.8125 C-70.00510001 98.1953917 -68.82281144 96.57820192 -67.640625 94.9609375 C-66.73280273 93.7248877 -66.73280273 93.7248877 -65.80664062 92.46386719 C-62.99891992 88.63474322 -60.21719784 84.78699222 -57.4375 80.9375 C-56.63058716 79.82145386 -56.63058716 79.82145386 -55.80737305 78.68286133 C-51.66858642 72.94979243 -47.58650692 67.17825593 -43.51928711 61.39428711 C-39.34744926 55.47020892 -35.10686623 49.59759925 -30.85546875 43.73046875 C-26.70498627 37.99507649 -22.61395077 32.22000472 -18.54370117 26.42749023 C-14.12181129 20.14545329 -9.62266153 13.92046406 -5.09960938 7.7109375 C-4.3174707 6.63392578 -4.3174707 6.63392578 -3.51953125 5.53515625 C-2.82500854 4.58201538 -2.82500854 4.58201538 -2.11645508 3.60961914 C-0.9336064 1.98579218 -0.9336064 1.98579218 0 0 Z " fill="#FD7400" transform="translate(238,42)"/>
<path d="M0 0 C0.77170029 -0.00014603 1.54340057 -0.00029205 2.33848572 -0.0004425 C4.85980149 0.00024771 7.38104107 0.00799788 9.90234375 0.01586914 C11.66210896 0.01773649 13.4218747 0.0191589 15.18164062 0.02015686 C19.79129496 0.02395707 24.4009173 0.03376579 29.01055908 0.04486084 C33.72318082 0.05512888 38.43580778 0.05966599 43.1484375 0.06469727 C52.37892023 0.07539051 61.60937932 0.09243664 70.83984375 0.11352539 C69.57069506 3.38304441 68.30895957 6.11732002 66.22265625 8.94165039 C65.70445312 9.64999023 65.18625 10.35833008 64.65234375 11.08813477 C64.09546875 11.83901367 63.53859375 12.58989258 62.96484375 13.36352539 C61.7791133 14.9827062 60.59423644 16.60251239 59.41015625 18.22290039 C58.51151855 19.44976562 58.51151855 19.44976562 57.59472656 20.70141602 C54.96909958 24.31037464 52.4028374 27.95995092 49.83984375 31.61352539 C45.1792849 38.24331277 40.45039039 44.82082326 35.6953125 51.38305664 C32.03988787 56.43434747 28.42626413 61.51304891 24.83984375 66.61352539 C20.71593155 72.47840317 16.54664826 78.30782239 12.33984375 84.11352539 C7.90631948 90.2330848 3.50898688 96.37646427 -0.84765625 102.55102539 C-1.35296875 103.26709961 -1.85828125 103.98317383 -2.37890625 104.72094727 C-4.33647528 107.500911 -6.27393384 110.28419177 -8.16015625 113.11352539 C-10.73334544 113.40007226 -13.06512724 113.49205426 -15.63916016 113.45410156 C-16.79539635 113.45475868 -16.79539635 113.45475868 -17.97499084 113.45542908 C-20.52915562 113.45333489 -23.0826683 113.4299748 -25.63671875 113.40649414 C-27.40505617 113.40090041 -29.17339822 113.39662926 -30.94174194 113.39363098 C-35.60091947 113.3821646 -40.25981739 113.35268214 -44.91888428 113.31951904 C-49.67114479 113.28885669 -54.42345038 113.27513386 -59.17578125 113.26000977 C-68.50402924 113.22781405 -77.83206952 113.17659617 -87.16015625 113.11352539 C-87.23563887 108.42199017 -87.28936972 103.73082617 -87.32495117 99.03881836 C-87.3398203 97.45053941 -87.3601218 95.86229984 -87.38647461 94.27416992 C-87.78682638 69.48376039 -81.8594293 47.09698736 -65.16015625 28.11352539 C-64.49371094 27.35168945 -63.82726562 26.58985352 -63.140625 25.80493164 C-47.04740921 8.5771292 -23.2868682 -0.11792826 0 0 Z " fill="#FD7300" transform="translate(129.16015625,41.886474609375)"/>
<path d="M0 0 C13.88872988 4.0289829 25.24431954 10.33372126 36 20 C36.98613281 20.87978516 36.98613281 20.87978516 37.9921875 21.77734375 C52.78700918 35.75023089 60.18316387 55.28214711 63 75 C63 86.55 63 98.1 63 110 C16.47 110 -30.06 110 -78 110 C-73.72628992 103.28416988 -69.50845236 96.76361104 -64.8125 90.375 C-63.67238523 88.81047257 -62.53308099 87.24535421 -61.39453125 85.6796875 C-60.82686035 84.89948242 -60.25918945 84.11927734 -59.67431641 83.31542969 C-57.08381852 79.73300304 -54.54093552 76.1176675 -52 72.5 C-45.20848328 62.84436145 -38.28178996 53.28792977 -31.35449219 43.72949219 C-24.91238753 34.837627 -18.51153412 25.92040432 -12.1940918 16.93945312 C-8.18800326 11.24947002 -4.11893328 5.60901797 0 0 Z " fill="#FD7700" transform="translate(407,45)"/>
</svg>
