<?xml version="1.0" encoding="UTF-8"?>
<svg version="1.1" xmlns="http://www.w3.org/2000/svg" width="512" height="512">
<path d="M0 0 C1.78142934 -0.00627366 3.56285739 -0.01292124 5.34428406 -0.01991272 C11.16563018 -0.04083265 16.98697622 -0.05129767 22.80834961 -0.0612793 C24.81813508 -0.06533013 26.82792041 -0.06944715 28.83770561 -0.07362938 C38.27447317 -0.09264749 47.71123303 -0.10689055 57.14801604 -0.11524135 C68.0256248 -0.12502816 78.90303087 -0.15139947 89.78056818 -0.19174224 C98.20288739 -0.2219043 106.62514842 -0.23670995 115.04752058 -0.24002236 C120.07236633 -0.24237091 125.09699467 -0.25130764 130.1217823 -0.27648354 C134.84559741 -0.29977359 139.56905196 -0.30399375 144.29290962 -0.29372215 C146.02306824 -0.29322706 147.75324471 -0.29953957 149.48334885 -0.3132782 C165.77370935 -0.43537443 165.77370935 -0.43537443 172.39819336 4.17700195 C177.0412529 9.05816711 177.75547349 13.14400802 177.67944336 19.6730957 C177.12294606 24.62746751 174.37525745 27.31625501 170.77319336 30.48950195 C166.83773784 33.28574666 164.00093672 33.32223434 159.30450439 33.31503296 C158.19582288 33.31926488 158.19582288 33.31926488 157.06474376 33.32358229 C154.57464618 33.33195078 152.08459294 33.33326852 149.59448242 33.3347168 C147.81396865 33.33938373 146.03345607 33.34452709 144.25294495 33.35011292 C140.40989544 33.36140997 136.56685377 33.36983673 132.72379303 33.37623215 C126.63726412 33.38690874 120.55079088 33.40715617 114.46429443 33.42935181 C97.15306165 33.49127621 79.84183101 33.54518054 62.53051758 33.57836914 C52.97599915 33.5967673 43.42157296 33.62577462 33.86712241 33.66637385 C28.81410411 33.68736962 23.76120172 33.70289042 18.70813751 33.70518112 C13.94417972 33.70734302 9.1804626 33.72336812 4.41657829 33.74957085 C2.6776837 33.75670897 0.93875977 33.7588918 -0.8001461 33.75546837 C-20.88212798 33.72227886 -37.5152871 37.44949465 -53.60180664 50.17700195 C-54.65368164 50.94012695 -55.70555664 51.70325195 -56.78930664 52.48950195 C-70.69022913 65.77260567 -77.28087832 83.95386851 -78.0181427 102.84059143 C-78.05004202 103.59296441 -78.08194134 104.3453374 -78.11480731 105.12050956 C-78.21915031 107.63209254 -78.31684698 110.14387451 -78.41357422 112.65576172 C-78.44863634 113.5378021 -78.48369846 114.41984249 -78.51982307 115.32861137 C-79.20879153 132.7821838 -79.63395473 150.23995912 -79.96367359 167.70370579 C-80.1787471 178.80910502 -80.47673655 189.90003433 -80.97607422 200.99658203 C-86.09142932 249.39126834 -86.09142932 249.39126834 -70.85200596 292.77259541 C-61.57888331 301.25562998 -50.67394448 306.15489259 -38.89755249 310.18209839 C-32.41189845 312.45986404 -27.14539482 316.01208312 -21.62605286 320.03077698 C-6.13606525 331.02359829 15.20506229 334.31627798 33.79321289 331.8605957 C61.4324139 327.14631261 78.56950548 311.20813041 97.60801315 291.98121643 C99.96965683 289.59727249 102.33548081 287.21755037 104.70254517 284.83898926 C111.42577074 278.0824317 118.14475125 271.32169797 124.85327148 264.55053711 C128.97554024 260.39037636 133.10529556 256.23777078 137.23976517 252.08973694 C138.80127592 250.52023907 140.3600202 248.94798325 141.91578293 247.37278748 C152.30613815 236.85487286 162.66419743 226.38381846 176.14819336 219.86450195 C176.81012695 219.53893311 177.47206055 219.21336426 178.15405273 218.87792969 C199.48776934 208.84696091 223.27239651 209.25029616 245.33959961 216.4699707 C259.42329753 222.05651634 271.71900137 231.25646825 284.14819336 239.73950195 C286.08399903 241.05453267 288.02019445 242.36898985 289.95678711 243.68286133 C293.51880753 246.09994117 297.07815774 248.52086348 300.63549805 250.94482422 C305.20297972 254.05254268 309.7955378 257.12167456 314.39819336 260.17700195 C314.40183899 259.21313568 314.40548462 258.24926941 314.40924072 257.25619507 C314.44621584 248.16328616 314.50401594 239.07071513 314.5820961 229.97806358 C314.62156983 225.30363964 314.65375879 220.62940404 314.66918945 215.95483398 C314.68435677 211.4417938 314.71880348 206.92927143 314.76650238 202.41646194 C314.78131543 200.69657523 314.78923433 198.97661458 314.79007721 197.25666428 C314.79244892 194.84332114 314.8195428 192.43140666 314.85229492 190.01831055 C314.84726456 189.3105246 314.84223419 188.60273865 314.83705139 187.87350464 C314.94181694 182.86932893 316.29097927 180.04937763 319.39819336 176.17700195 C324.42654369 171.74726475 327.27984626 170.87683607 333.85913086 170.9621582 C338.62771508 171.36565379 341.41249539 173.13654299 344.64819336 176.55200195 C348.0200293 181.60975586 348.6486918 185.52417476 348.65216064 191.5934906 C348.65528063 192.33109133 348.65840061 193.06869207 348.66161513 193.82864434 C348.66958024 196.29567537 348.66327709 198.7624594 348.65698242 201.22949219 C348.65969315 203.00059656 348.66325455 204.7716998 348.66760254 206.5428009 C348.67672498 211.35323686 348.67318128 216.16358707 348.66684437 220.97402453 C348.66177653 226.01768393 348.66647867 231.06133604 348.6696167 236.10499573 C348.67325706 244.58465895 348.66845855 253.06428737 348.65893555 261.54394531 C348.64808244 271.32028844 348.65155336 281.09654793 348.66258836 290.87288898 C348.67169704 299.28163884 348.67292812 307.69036366 348.66771102 316.09911686 C348.66460687 321.11407498 348.66413828 326.12899397 348.670784 331.14394951 C348.6766079 335.86930512 348.67246928 340.59455436 348.66099548 345.31989861 C348.65837429 347.04429448 348.6590699 348.76869946 348.66352081 350.49309158 C348.73711359 381.93058149 339.84669904 408.26164222 318.14819336 431.48168945 C297.76467744 451.45985136 271.28467561 460.35342241 243.0839386 460.31071472 C241.97540045 460.31298028 240.86686231 460.31524583 239.7247321 460.31758004 C236.02643828 460.32388797 232.3281814 460.32309274 228.62988281 460.32226562 C225.97150029 460.32525913 223.31312061 460.32863407 220.65473938 460.33244324 C214.19223774 460.34072735 207.72974522 460.34349707 201.26723871 460.34405562 C196.01013504 460.34453188 190.75303435 460.34659213 185.49593163 460.34975624 C170.568215 460.35855703 155.64050554 460.36317657 140.71278629 460.36242577 C139.90909025 460.36238581 139.10539422 460.36234585 138.27734375 460.36230469 C137.47265839 460.36226381 136.66797303 460.36222293 135.83890327 460.36218081 C122.80593707 460.36177459 109.77299979 460.37133942 96.74004195 460.38544305 C83.33548027 460.39983353 69.93093267 460.40671176 56.52636307 460.40584928 C49.00976888 460.40551821 41.49320501 460.40822555 33.97661781 460.41902733 C27.57553532 460.4281676 21.17449688 460.43027882 14.77341066 460.42351791 C11.51292434 460.42027028 8.25253923 460.42123552 4.9920578 460.42887115 C-29.3917204 460.50414713 -57.17329665 453.97397852 -82.90649414 429.92700195 C-102.88465605 409.54348604 -111.7782271 383.06348421 -111.73551941 354.86274719 C-111.73778497 353.75420905 -111.74005052 352.6456709 -111.74238473 351.50354069 C-111.74869265 347.80524687 -111.74789743 344.10699 -111.74707031 340.40869141 C-111.75006382 337.75030888 -111.75343875 335.09192921 -111.75724792 332.43354797 C-111.76553204 325.97104633 -111.76830176 319.50855382 -111.7688603 313.04604731 C-111.76933657 307.78894363 -111.77139682 302.53184295 -111.77456093 297.27474022 C-111.78336172 282.34702359 -111.78798125 267.41931413 -111.78723045 252.49159489 C-111.7871905 251.68789885 -111.78715054 250.88420281 -111.78710938 250.05615234 C-111.78704805 248.84912431 -111.78704805 248.84912431 -111.78698549 247.61771186 C-111.78657928 234.58474566 -111.79614411 221.55180838 -111.81024774 208.51885054 C-111.82463822 195.11428886 -111.83151644 181.70974126 -111.83065397 168.30517167 C-111.8303229 160.78857748 -111.83303023 153.27201361 -111.84383202 145.75542641 C-111.85297229 139.35434391 -111.8550835 132.95330547 -111.84832259 126.55221925 C-111.84507497 123.29173294 -111.84604021 120.03134782 -111.85367584 116.77086639 C-111.92895182 82.3870882 -105.39878321 54.60551194 -81.35180664 28.87231445 C-58.79461551 6.76370383 -30.76307542 0.04773465 0 0 Z " fill="#FEAC00" transform="translate(137.601806640625,25.822998046875)"/>
<path d="M0 0 C12.16754622 8.62534937 19.32586176 19.52796882 22.95703125 34.00390625 C24.72185812 45.3185907 23.66525486 56.06929538 19.375 66.68359375 C19.07464844 67.42996094 18.77429688 68.17632812 18.46484375 68.9453125 C12.72624018 81.59011431 2.25745214 90.63110978 -10.5625 95.68359375 C-25.77163784 101.11139015 -41.16302805 99.69413931 -55.6875 93.05859375 C-69.4154216 85.82120503 -77.79588959 74.24881387 -82.625 59.68359375 C-83.97567413 54.9995648 -83.8479439 50.40163489 -83.875 45.55859375 C-83.895625 44.65882813 -83.91625 43.7590625 -83.9375 42.83203125 C-84.0223905 28.06108418 -77.79845305 15.84271982 -67.578125 5.453125 C-49.38760653 -12.11157288 -20.86665443 -13.40950069 0 0 Z " fill="#FD8900" transform="translate(211.625,136.31640625)"/>
<path d="M0 0 C3.68807589 2.6217409 5.39998447 6.08667215 6.796875 10.27734375 C6.88442298 11.94955346 6.91453495 13.62506574 6.91040039 15.29956055 C6.91028709 16.83080818 6.91028709 16.83080818 6.91017151 18.39299011 C6.90501022 19.493069 6.89984894 20.59314789 6.89453125 21.7265625 C6.8931163 22.85431595 6.89170135 23.9820694 6.89024353 25.14399719 C6.8846397 28.75097287 6.87208653 32.35788679 6.859375 35.96484375 C6.85436049 38.40820223 6.8497975 40.85156168 6.84570312 43.29492188 C6.83466903 49.28908362 6.81792715 55.28320927 6.796875 61.27734375 C7.41804199 61.2684613 8.03920898 61.25957886 8.67919922 61.25042725 C15.16836304 61.16165032 21.65735316 61.10148375 28.14697266 61.05761719 C30.5659893 61.0375531 32.98495776 61.01029532 35.40380859 60.97558594 C38.88911868 60.92684034 42.37378516 60.90432211 45.859375 60.88671875 C46.93364746 60.86607361 48.00791992 60.84542847 49.11474609 60.82415771 C55.46489188 60.82227764 60.57892652 61.41688226 65.796875 65.27734375 C69.96602157 70.51550226 71.34414924 74.60059797 70.796875 81.27734375 C68.98694888 86.54973722 66.56235118 90.22255132 61.796875 93.27734375 C58.79320986 94.27856546 56.81947907 94.39846386 53.68286133 94.39086914 C52.64200882 94.39079361 51.60115631 94.39071808 50.52876282 94.39064026 C49.40681015 94.38547897 48.28485748 94.38031769 47.12890625 94.375 C45.97895676 94.37358505 44.82900726 94.3721701 43.64421082 94.37071228 C39.96590592 94.36510804 36.28766155 94.35255479 32.609375 94.33984375 C30.11783942 94.3348293 27.62630289 94.3302663 25.13476562 94.32617188 C19.02211471 94.31513722 12.90949918 94.29839493 6.796875 94.27734375 C6.80575745 94.89851074 6.81463989 95.51967773 6.8237915 96.15966797 C6.91256843 102.64883179 6.972735 109.13782191 7.01660156 115.62744141 C7.03666565 118.04645805 7.06392343 120.46542651 7.09863281 122.88427734 C7.14737841 126.36958743 7.16989664 129.85425391 7.1875 133.33984375 C7.20814514 134.41411621 7.22879028 135.48838867 7.25006104 136.59521484 C7.25196081 143.0119087 6.56854963 147.95545306 2.796875 153.27734375 C-2.08429015 157.92040329 -6.17013106 158.63462388 -12.69921875 158.55859375 C-17.65359055 158.00209645 -20.34237806 155.25440784 -23.515625 151.65234375 C-25.98804153 148.17264641 -26.3266713 146.4138817 -26.31665039 142.18505859 C-26.31657486 141.1241098 -26.31649933 140.06316101 -26.31642151 138.97006226 C-26.31126022 137.82107452 -26.30609894 136.67208679 -26.30078125 135.48828125 C-26.2993663 134.31472076 -26.29795135 133.14116028 -26.29649353 131.93203735 C-26.29088189 128.1721139 -26.27832738 124.4122493 -26.265625 120.65234375 C-26.2606115 118.10807377 -26.25604833 115.56380287 -26.25195312 113.01953125 C-26.24090868 106.77211522 -26.22415918 100.52473369 -26.203125 94.27734375 C-27.17912155 94.29066742 -27.17912155 94.29066742 -28.17483521 94.30426025 C-34.95566002 94.39285209 -41.73632004 94.45312748 -48.51757812 94.49707031 C-51.04726847 94.5171678 -53.57691246 94.54445043 -56.10644531 94.57910156 C-59.74555917 94.62769931 -63.384058 94.65033187 -67.0234375 94.66796875 C-68.15178009 94.68861389 -69.28012268 94.70925903 -70.44265747 94.73052979 C-76.69383855 94.73231043 -80.47781147 94.5195736 -85.203125 90.27734375 C-89.6328622 85.24899342 -90.50329088 82.39569084 -90.41796875 75.81640625 C-90.01447316 71.04782203 -88.24358396 68.26304172 -84.828125 65.02734375 C-80.5650288 62.18527962 -77.07523472 61.0248767 -71.95385742 61.05029297 C-70.93317673 61.05044403 -69.91249603 61.05059509 -68.86088562 61.05075073 C-67.22625114 61.06623459 -67.22625114 61.06623459 -65.55859375 61.08203125 C-64.4336702 61.08486115 -63.30874664 61.08769104 -62.1497345 61.09060669 C-58.56325564 61.10178539 -54.97702815 61.12688612 -51.390625 61.15234375 C-48.95638382 61.16237652 -46.52213872 61.17150185 -44.08789062 61.1796875 C-38.12621658 61.20171719 -32.16468875 61.23517201 -26.203125 61.27734375 C-26.20978683 60.63920746 -26.21644867 60.00107117 -26.22331238 59.34359741 C-26.28976349 52.69249518 -26.33496634 46.04148751 -26.36791992 39.39013672 C-26.38299162 36.90897795 -26.40345246 34.42784576 -26.42944336 31.94677734 C-26.46589667 28.37721186 -26.48286792 24.80799914 -26.49609375 21.23828125 C-26.51157761 20.13181244 -26.52706146 19.02534363 -26.54301453 17.88534546 C-26.5442358 12.27667439 -26.47044684 8.07385246 -23.203125 3.27734375 C-16.17208437 -3.38364211 -8.55607859 -4.65941489 0 0 Z " fill="#FD7800" transform="translate(415.203125,28.72265625)"/>
</svg>
