<?xml version="1.0" encoding="UTF-8"?>
<svg version="1.1" xmlns="http://www.w3.org/2000/svg" width="512" height="512">
<path d="M0 0 C1.66650123 -0.00417737 3.33299962 -0.0096571 4.99949276 -0.01631981 C9.56002483 -0.03074021 14.12037566 -0.02654036 18.6809175 -0.019153 C23.60673313 -0.01441519 28.53250989 -0.02693661 33.45831299 -0.03717041 C43.10107973 -0.05435176 52.74378128 -0.05519978 62.38655935 -0.04995751 C70.2256606 -0.04591331 78.0647426 -0.04736233 85.90384293 -0.05270576 C87.02026929 -0.05345419 88.13669566 -0.05420261 89.28695313 -0.05497371 C91.55509702 -0.05650521 93.8232409 -0.05804356 96.09138478 -0.05958868 C117.35360282 -0.07331134 138.61578404 -0.06787769 159.87800123 -0.05640347 C179.32060689 -0.04647151 198.76311738 -0.05941156 218.20570837 -0.08333766 C238.180192 -0.10773269 258.1546313 -0.11733552 278.12912953 -0.11068493 C289.33896154 -0.1071936 300.54872037 -0.10941917 311.75854111 -0.12693596 C321.30124082 -0.14166296 330.84381581 -0.1422868 340.3865131 -0.12486505 C345.25283767 -0.11635682 350.11893947 -0.11420126 354.98525238 -0.1295166 C359.44514624 -0.1433788 363.9046268 -0.13858086 368.36449684 -0.11927737 C369.97274415 -0.11552175 371.58102469 -0.11842662 373.18924235 -0.12888902 C389.33094222 -0.22638378 401.28494306 3.56126497 413.290802 14.70018005 C422.86495301 24.81626414 426.00744418 36.36844107 425.92848206 49.98750305 C425.93656036 51.67820992 425.93656036 51.67820992 425.94480187 53.40307248 C425.95904377 57.1583085 425.9519868 60.91319015 425.94485474 64.66844177 C425.95056028 67.36963506 425.95742525 70.0708034 425.96565247 72.77198792 C425.98280189 79.33463925 425.9836885 85.89719467 425.97843956 92.45986257 C425.9743893 97.79705961 425.97585156 103.13422841 425.98118782 108.4714241 C425.98193624 109.23260423 425.98268466 109.99378436 425.98345577 110.77803055 C425.98498733 112.32463844 425.98652568 113.87124633 425.98807073 115.4178542 C426.00178191 129.90438233 425.9963679 144.39085637 425.98488552 158.87738325 C425.97495533 172.1121407 425.98789254 185.34675831 426.01181971 198.5814942 C426.03623921 212.19175261 426.04581154 225.80194597 426.03916699 239.41222584 C426.03568099 247.04502437 426.03786569 254.67771539 426.05541801 262.31049728 C426.07017575 268.8082797 426.07072907 275.30587892 426.0533471 281.80365787 C426.04486357 285.11468935 426.0448094 288.42512699 426.05799866 291.73618317 C426.07123891 295.33572405 426.0596327 298.93438603 426.04200745 302.53388977 C426.05161245 303.56601621 426.06121746 304.59814264 426.07111353 305.66154563 C425.93283279 319.45740636 420.49007935 330.15505683 411.228302 340.13768005 C398.43816848 352.24262785 384.57058856 352.81044329 367.94876099 352.59788513 C365.96505207 352.58396515 363.98133184 352.57158585 361.99760437 352.56062317 C357.73935792 352.53515458 353.48128307 352.50147789 349.22314262 352.46215248 C342.47570595 352.40257314 335.72842121 352.37792417 328.98075867 352.36099243 C326.66456888 352.35480719 324.34837911 352.348613 322.03218937 352.34241009 C320.87256219 352.33934365 319.71293501 352.33627721 318.51816761 352.33311784 C302.82237503 352.28928564 287.12732215 352.21877262 271.43215942 352.06907654 C260.82670456 351.96819853 250.22227478 351.91761402 239.61632591 351.92341918 C234.01394879 351.92442727 228.41429707 351.90022988 222.81252861 351.81395912 C217.53610329 351.7329727 212.26348991 351.7185205 206.98659325 351.75265121 C205.06334961 351.75361931 203.13990872 351.73109446 201.2172966 351.68180275 C187.58754145 351.35114305 180.15322439 354.40380307 170.22862339 363.83939648 C169.61651135 364.43784543 169.0043993 365.03629439 168.37373841 365.65287817 C165.57415637 368.30257195 162.54476864 370.62102579 159.478302 372.95018005 C154.44596241 376.86554594 149.48016456 380.8557282 144.540802 384.88768005 C139.01746544 389.39535219 133.44895603 393.83610773 127.8298645 398.22361755 C123.35643492 401.72544252 118.94212999 405.2957917 114.540802 408.88768005 C109.01981968 413.39330931 103.45543204 417.83436956 97.8364563 422.21702576 C93.28958406 425.7734008 88.81873209 429.41733895 84.353302 433.07518005 C64.18707687 449.56292288 64.18707687 449.56292288 51.540802 448.38768005 C46.57316829 446.08127869 44.16631416 443.13843359 41.540802 438.38768005 C41.00334389 435.51768842 41.03317413 432.72479476 41.08670044 429.81199646 C41.08611633 428.97231323 41.08553223 428.13263 41.08493042 427.26750183 C41.08770461 424.50765326 41.1187645 421.74890113 41.150177 418.98924255 C41.15764177 417.06968272 41.16333359 415.15011524 41.16732788 413.23054504 C41.18256562 408.18993413 41.22183147 403.14978773 41.2661438 398.10935974 C41.30713661 392.96131167 41.32534746 387.8131882 41.3454895 382.6650238 C41.38832747 372.57237233 41.45655632 362.48006489 41.540802 352.38768005 C40.84082092 352.3965625 40.14083984 352.40544495 39.41964722 352.41459656 C32.77176727 352.49527242 26.12402707 352.55591044 19.47576523 352.59492874 C16.05907794 352.61566406 12.64280042 352.64371768 9.22634888 352.68943787 C5.28434424 352.74185153 1.34249631 352.76074141 -2.599823 352.77830505 C-4.40993866 352.80927277 -4.40993866 352.80927277 -6.25662231 352.84086609 C-20.80097836 352.84465322 -31.62843157 347.89190864 -42.209198 338.07518005 C-51.78334901 327.95909597 -54.92584018 316.40691904 -54.84687805 302.78785706 C-54.85226359 301.66071915 -54.85764913 300.53358124 -54.86319786 299.37228763 C-54.87743976 295.61705161 -54.87038279 291.86216996 -54.86325073 288.10691833 C-54.86895627 285.40572505 -54.87582125 282.7045567 -54.88404846 280.00337219 C-54.90119789 273.44072086 -54.90208449 266.87816544 -54.89683556 260.31549753 C-54.89278529 254.9783005 -54.89424756 249.6411317 -54.89958382 244.303936 C-54.90033224 243.54275588 -54.90108066 242.78157575 -54.90185176 241.99732956 C-54.90338333 240.45072166 -54.90492167 238.90411378 -54.90646673 237.3575059 C-54.9201779 222.87097778 -54.9147639 208.38450374 -54.90328152 193.89797686 C-54.89335133 180.6632194 -54.90628853 167.4286018 -54.93021571 154.19386591 C-54.95463521 140.58360749 -54.96420754 126.97341414 -54.95756298 113.36313426 C-54.95407699 105.73033574 -54.95626169 98.09764471 -54.97381401 90.46486282 C-54.98857175 83.96708041 -54.98912507 77.46948119 -54.9717431 70.97170223 C-54.96325957 67.66067076 -54.96320539 64.35023312 -54.97639465 61.03917694 C-54.9896349 57.43963606 -54.9780287 53.84097407 -54.96040344 50.24147034 C-54.97000845 49.2093439 -54.97961346 48.17721747 -54.98950952 47.11381447 C-54.85122879 33.31795375 -49.40847534 22.62030328 -40.146698 12.63768005 C-28.41934397 1.53857714 -15.49883799 -0.06336654 0 0 Z M-18.396698 38.13768005 C-22.65727776 44.85132089 -22.75005497 51.1502114 -22.71989441 58.88764954 C-22.72371996 59.93266982 -22.7275455 60.97769011 -22.73148698 62.05437768 C-22.74179021 65.54948174 -22.73782985 69.0444207 -22.7338562 72.53953552 C-22.73820415 75.04810233 -22.74338758 77.55666782 -22.74934387 80.06523132 C-22.76134568 86.16806659 -22.76388632 92.27084117 -22.76154361 98.37368594 C-22.75975866 103.33578487 -22.76151388 108.29787047 -22.76576805 113.2599678 C-22.76636324 113.96691335 -22.76695843 114.67385889 -22.76757165 115.40222702 C-22.76878344 116.8385167 -22.76999757 118.27480638 -22.77121403 119.71109606 C-22.78208419 133.1731433 -22.7799296 146.63516547 -22.77382918 160.09721412 C-22.76866084 172.40298699 -22.77991421 184.70868069 -22.7989274 197.0144379 C-22.81831635 209.66067923 -22.82655993 222.30688313 -22.82280415 234.95313942 C-22.82089366 242.04875617 -22.82336476 249.14430553 -22.83751869 256.23991013 C-22.85069547 262.91299696 -22.84815815 269.58589983 -22.8351078 276.25899506 C-22.83274125 278.70630827 -22.83547951 281.15363262 -22.84373093 283.60093307 C-22.854193 286.94538692 -22.84610144 290.28930845 -22.8334198 293.63374329 C-22.84079408 294.59883564 -22.84816837 295.56392799 -22.85576612 296.55826557 C-22.80511735 302.92122678 -22.31926618 309.81948403 -18.18429261 314.97824085 C-12.80024196 319.89452813 -6.3483929 320.63575292 0.66604614 320.64305115 C1.34018051 320.6466716 2.01431488 320.65029205 2.70887756 320.65402222 C4.15964985 320.6608687 5.61044762 320.66343065 7.06123543 320.66207504 C9.36135657 320.66110259 11.66101959 320.67413442 13.96107483 320.6910553 C20.4958348 320.73712256 27.03054316 320.76193997 33.56546021 320.76853943 C37.57431267 320.7735622 41.58267984 320.79784199 45.59136772 320.83386612 C47.11310344 320.84363839 48.63490609 320.84601012 50.15666389 320.84069443 C52.28661983 320.83359922 54.41513276 320.85095065 56.54495239 320.8735199 C57.75405777 320.87636993 58.96316315 320.87921997 60.20890808 320.88215637 C65.23717813 321.64505869 68.25136158 323.76181758 71.38877869 327.71780396 C72.80708196 331.00479819 72.93947583 333.52684042 72.97317505 337.10569763 C72.9833667 337.75991699 72.99355835 338.41413635 73.00405884 339.08818054 C73.03409281 341.23627899 73.0434395 343.38393083 73.05252075 345.5322113 C73.06937466 347.02723664 73.08752587 348.52224787 73.10691833 350.01724243 C73.15434757 353.94133597 73.18420242 357.86537229 73.21035767 361.78965759 C73.24019911 365.79835813 73.28671707 369.80686167 73.33181763 373.81541443 C73.41777012 381.67273936 73.48515092 389.53008236 73.540802 397.38768005 C76.28873609 396.04958277 78.58289133 394.68743895 80.9392395 392.7353363 C81.57603638 392.21197693 82.21283325 391.68861755 82.868927 391.1493988 C83.54439575 390.58865662 84.2198645 390.02791443 84.915802 389.45018005 C86.36033675 388.26303513 87.80566293 387.07685263 89.2517395 385.8915863 C89.9745813 385.29877869 90.6974231 384.70597107 91.44216919 384.09519958 C94.4441507 381.65268461 97.48823581 379.26645779 100.540802 376.88768005 C105.58967459 372.94626952 110.57843817 368.93742525 115.540802 364.88768005 C121.06542417 360.37908035 126.63380861 355.93553527 132.25613403 351.54954529 C136.69415361 348.07791919 141.0582866 344.52205267 145.415802 340.95018005 C150.99220287 336.38903668 156.65251824 331.96046922 162.415802 327.63768005 C163.44229858 326.86726379 163.44229858 326.86726379 164.48953247 326.08128357 C169.95595932 322.01241991 172.83977312 321.24058219 179.54130554 321.24964905 C180.37787609 321.24682777 181.21444663 321.24400649 182.0763678 321.24109972 C184.89598335 321.23272804 187.71555978 321.23141325 190.53518677 321.22996521 C192.55041108 321.22529874 194.56563435 321.22015546 196.58085632 321.21456909 C200.92974817 321.2032722 205.2786331 321.19484559 209.62753487 321.18844986 C216.50660389 321.1777839 223.38562347 321.15754161 230.2646637 321.1353302 C249.82942433 321.0733626 269.3941826 321.01942219 288.95901489 320.98631287 C299.75757666 320.9679581 310.55605617 320.93900873 321.35455745 320.89830816 C327.06972654 320.87724761 332.78479197 320.86178227 338.50000191 320.85950089 C343.88033579 320.85735081 349.26045408 320.84144444 354.64072227 320.81511116 C356.6123142 320.80792967 358.58393229 320.8058116 360.55553436 320.80921364 C363.25441378 320.81312561 365.9526105 320.79859807 368.65141296 320.77967834 C369.4253685 320.78520804 370.19932404 320.79073774 370.99673277 320.796435 C376.89748521 320.72539568 383.38908857 319.90226665 388.13864619 316.11284411 C393.97151784 309.68996855 393.83328121 302.04132094 393.80149841 293.88771057 C393.80532396 292.84269029 393.80914951 291.79767 393.81309098 290.72098243 C393.82339422 287.22587837 393.81943386 283.73093941 393.81546021 280.23582458 C393.81980815 277.72725777 393.82499158 275.21869229 393.83094788 272.71012878 C393.84294968 266.60729352 393.84549033 260.50451893 393.84314761 254.40167417 C393.84136266 249.43957524 393.84311789 244.47748964 393.84737206 239.5153923 C393.84826484 238.45497399 393.84826484 238.45497399 393.84917566 237.37313309 C393.85038744 235.9368434 393.85160158 234.50055372 393.85281803 233.06426404 C393.86368819 219.60221681 393.8615336 206.14019463 393.85543319 192.67814599 C393.85026484 180.37237312 393.86151821 168.06667942 393.88053141 155.76092221 C393.89992035 143.11468087 393.90816393 130.46847698 393.90440816 117.82222068 C393.90249767 110.72660394 393.90496877 103.63105458 393.9191227 96.53544998 C393.93229947 89.86236314 393.92976215 83.18946028 393.91671181 76.51636505 C393.91434525 74.06905183 393.91708352 71.62172748 393.92533493 69.17442703 C393.935797 65.82997318 393.92770545 62.48605166 393.9150238 59.14161682 C393.92239809 58.17652447 393.92977237 57.21143212 393.93737012 56.21709454 C393.88672135 49.85413333 393.40087018 42.95587608 389.26589662 37.79711926 C383.97489841 32.96580007 377.61338721 32.13836927 370.7075367 32.13320446 C370.05382066 32.12999798 369.40010462 32.1267915 368.72657901 32.12348786 C366.54478118 32.1152128 364.36325965 32.12110325 362.18145752 32.12698364 C360.5979052 32.12396182 359.01435433 32.12007218 357.43080604 32.11539108 C353.08576747 32.10510634 348.74081137 32.10729411 344.39576602 32.11157167 C339.70718415 32.11403802 335.01862219 32.10502585 330.33004761 32.09753418 C321.14709821 32.08478264 311.96417805 32.08299406 302.78122129 32.08533444 C295.31721667 32.08711725 287.85322093 32.08536875 280.38921738 32.08111 C279.3270256 32.08051481 278.26483382 32.07991962 277.17045441 32.0793064 C275.01262872 32.07809465 272.85480304 32.07688052 270.69697736 32.07566402 C250.45923697 32.06478672 230.22151324 32.06695187 209.98377191 32.07304887 C191.47014424 32.07821818 172.95656919 32.06696254 154.44295193 32.04795065 C135.43248327 32.02857821 116.4220395 32.02031521 97.41156089 32.0240739 C86.73890634 32.02598685 76.06629656 32.02348925 65.39365005 32.00935936 C56.30791698 31.99745218 47.22225625 31.99603325 38.13652219 32.00814953 C33.50150164 32.01404285 28.86661348 32.01512509 24.23160172 32.00314713 C19.98645504 31.99230421 15.74155154 31.99537272 11.49641632 32.00940881 C9.96282832 32.01206012 8.42922136 32.00967555 6.89565195 32.00167295 C-6.90364011 31.5774721 -6.90364011 31.5774721 -18.396698 38.13768005 Z " fill="#000000" transform="translate(70.45919799804688,31.612319946289063)"/>
<path d="M0 0 C1.64292778 -0.00935994 1.64292778 -0.00935994 3.31904602 -0.01890898 C6.99025987 -0.0348675 10.66081243 -0.02222286 14.33203125 -0.00964355 C16.96354561 -0.01506337 19.59505694 -0.02218523 22.2265625 -0.03088379 C28.63270663 -0.04866358 35.03866322 -0.04483152 41.44481468 -0.03323323 C46.65153924 -0.02419702 51.85821126 -0.02297571 57.06494141 -0.02732849 C57.80619294 -0.02794142 58.54744448 -0.02855436 59.31115818 -0.02918586 C60.8170306 -0.03046477 62.32290301 -0.03176163 63.82877541 -0.03307623 C77.94696453 -0.04448044 92.06504974 -0.03137085 106.18322182 -0.00987476 C118.295377 0.0079961 130.40737883 0.00489195 142.51953125 -0.0135498 C156.58744328 -0.03495936 170.65526426 -0.04338181 184.72319031 -0.03110075 C186.22350056 -0.02982656 187.72381082 -0.02856908 189.22412109 -0.02732849 C190.33137212 -0.02640284 190.33137212 -0.02640284 191.46099186 -0.02545848 C196.66102854 -0.02200583 201.86100743 -0.02783209 207.06103516 -0.0372467 C214.06081736 -0.04964127 221.06030498 -0.04080768 228.06005859 -0.01766968 C230.63117999 -0.01237425 233.20232574 -0.01391051 235.7734375 -0.02272034 C239.27897689 -0.03362578 242.78358283 -0.01997111 246.2890625 0 C247.31026688 -0.00892289 248.33147125 -0.01784577 249.38362122 -0.02703905 C255.15875352 0.0369242 258.59163175 0.59183403 263.14453125 4.50793457 C266.77286788 8.32723629 267.45453583 11.39072463 267.64453125 16.50793457 C267.45453583 21.62514451 266.77286788 24.68863285 263.14453125 28.50793457 C257.71275358 33.17998751 253.1175561 33.07553386 246.2890625 33.01586914 C245.19377731 33.0221091 244.09849213 33.02834907 242.97001648 33.03477812 C239.29880263 33.05073664 235.62825007 33.038092 231.95703125 33.0255127 C229.32551689 33.03093251 226.69400556 33.03805437 224.0625 33.04675293 C217.65635587 33.06453272 211.25039928 33.06070066 204.84424782 33.04910237 C199.63752326 33.04006616 194.43085124 33.03884485 189.22412109 33.04319763 C188.48286956 33.04381056 187.74161802 33.0444235 186.97790432 33.045055 C185.4720319 33.04633391 183.96615949 33.04763077 182.46028709 33.04894537 C168.34209797 33.06034958 154.22401276 33.04723999 140.10584068 33.0257439 C127.9936855 33.00787304 115.88168367 33.01097719 103.76953125 33.02941895 C89.70161922 33.0508285 75.63379824 33.05925096 61.56587219 33.04696989 C60.06556194 33.0456957 58.56525168 33.04443822 57.06494141 33.04319763 C55.95769038 33.04227198 55.95769038 33.04227198 54.82807064 33.04132763 C49.62803396 33.03787497 44.42805507 33.04370123 39.22802734 33.05311584 C32.22824514 33.06551041 25.22875752 33.05667682 18.22900391 33.03353882 C15.65788251 33.02824339 13.08673676 33.02977965 10.515625 33.03858948 C7.01008561 33.04949492 3.50547967 33.03584025 0 33.01586914 C-1.02120438 33.02479203 -2.04240875 33.03371491 -3.09455872 33.04290819 C-8.86969102 32.97894494 -12.30256925 32.42403511 -16.85546875 28.50793457 C-20.48380538 24.68863285 -21.16547333 21.62514451 -21.35546875 16.50793457 C-21.16547333 11.39072463 -20.48380538 8.32723629 -16.85546875 4.50793457 C-11.42369108 -0.16411836 -6.8284936 -0.05966472 0 0 Z " fill="#000000" transform="translate(132.85546875,159.4920654296875)"/>
<path d="M0 0 C1.37045026 -0.00542487 2.74089468 -0.01254958 4.11132812 -0.02124023 C7.82214736 -0.03943355 11.53252041 -0.0324229 15.24334717 -0.01972389 C19.13229549 -0.00957537 23.02120638 -0.0189947 26.91015625 -0.02526855 C33.44017372 -0.03253959 39.97001005 -0.02297163 46.5 -0.00390625 C54.04255185 0.01786159 61.58467116 0.01080982 69.12721252 -0.01121187 C75.61063837 -0.02938147 82.09393423 -0.03191662 88.57737732 -0.0214572 C92.44635098 -0.01523078 96.31512153 -0.01436299 100.18408203 -0.02760315 C103.82206402 -0.03918392 107.45949 -0.03109613 111.09741211 -0.00802612 C113.06428265 -0.00024035 115.03120039 -0.01207597 116.99804688 -0.02453613 C127.73721866 0.0783295 127.73721866 0.0783295 132.5625 4.51757812 C136.19083663 8.33687985 136.87250458 11.40036819 137.0625 16.51757812 C136.87250458 21.63478806 136.19083663 24.6982764 132.5625 28.51757812 C126.80959292 33.81024048 120.62887603 33.08269404 113.125 33.03515625 C111.75454974 33.04058112 110.38410532 33.04770583 109.01367188 33.05639648 C105.30285264 33.0745898 101.59247959 33.06757915 97.88165283 33.05488014 C93.99270451 33.04473162 90.10379362 33.05415095 86.21484375 33.0604248 C79.68482628 33.06769584 73.15498995 33.05812788 66.625 33.0390625 C59.08244815 33.01729466 51.54032884 33.02434643 43.99778748 33.04636812 C37.51436163 33.06453772 31.03106577 33.06707287 24.54762268 33.05661345 C20.67864902 33.05038703 16.80987847 33.04951924 12.94091797 33.0627594 C9.30293598 33.07434017 5.66551 33.06625238 2.02758789 33.04318237 C0.06071735 33.0353966 -1.90620039 33.04723222 -3.87304688 33.05969238 C-14.61221866 32.95682675 -14.61221866 32.95682675 -19.4375 28.51757812 C-23.06583663 24.6982764 -23.74750458 21.63478806 -23.9375 16.51757812 C-23.74750458 11.40036819 -23.06583663 8.33687985 -19.4375 4.51757812 C-13.68459292 -0.77508423 -7.50387603 -0.04753779 0 0 Z " fill="#000000" transform="translate(135.4375,223.482421875)"/>
</svg>
