<!DOCTYPE svg PUBLIC "-//W3C//DTD SVG 1.1//EN" "http://www.w3.org/Graphics/SVG/1.1/DTD/svg11.dtd">
<!-- Uploaded to: SVG Repo, www.svgrepo.com, Transformed by: SVG Repo Mixer Tools -->
<svg version="1.1" id="Layer_1" xmlns="http://www.w3.org/2000/svg" xmlns:xlink="http://www.w3.org/1999/xlink" viewBox="-3 -3 36.00 36.00" xml:space="preserve" width="800px" height="800px" fill="#000000">
<g id="SVGRepo_bgCarrier" stroke-width="0" transform="translate(0,0), scale(1)">
<rect x="-3" y="-3" width="36.00" height="36.00" rx="7.2" fill="#e4e2e2" strokewidth="0"/>
</g>
<g id="SVGRepo_tracerCarrier" stroke-linecap="round" stroke-linejoin="round"/>
<g id="SVGRepo_iconCarrier"> <style type="text/css"> .st0{fill:none;stroke:#6C3DB7;stroke-width:0.00030000000000000003;stroke-linecap:round;stroke-linejoin:round;stroke-miterlimit:10;} .st1{fill:none;stroke:#1F992A;stroke-width:0.00030000000000000003;stroke-linecap:round;stroke-linejoin:round;stroke-miterlimit:10;} .st2{fill:none;stroke:#6A83BA;stroke-width:0.00030000000000000003;stroke-linecap:round;stroke-linejoin:round;stroke-miterlimit:10;} .st3{fill:#5ea1e8;stroke:#5ea1e8;stroke-width:0.00030000000000000003;stroke-linecap:round;stroke-linejoin:round;stroke-miterlimit:10;} .st4{fill:#6C3DB7;stroke:#6C3DB7;stroke-width:0.00030000000000000003;stroke-linecap:round;stroke-linejoin:round;stroke-miterlimit:10;} .st5{fill:#A576FF;stroke:#A576FF;stroke-width:0.00030000000000000003;stroke-linecap:round;stroke-linejoin:round;stroke-miterlimit:10;} .st6{fill:#F2BB41;stroke:#F2BB41;stroke-width:0.00030000000000000003;stroke-linecap:round;stroke-linejoin:round;stroke-miterlimit:10;} .st7{fill:#E08838;stroke:#E08838;stroke-width:0.00030000000000000003;stroke-linecap:round;stroke-linejoin:round;stroke-miterlimit:10;} .st8{fill:#1F992A;stroke:#1F992A;stroke-width:0.00030000000000000003;stroke-linecap:round;stroke-linejoin:round;stroke-miterlimit:10;} .st9{fill:#5EC11E;stroke:#5EC11E;stroke-width:0.00030000000000000003;stroke-linecap:round;stroke-linejoin:round;stroke-miterlimit:10;} .st10{fill:#dedede;stroke:#dedede;stroke-width:0.00030000000000000003;stroke-linecap:round;stroke-linejoin:round;stroke-miterlimit:10;} .st11{fill:#FF5093;stroke:#FF5093;stroke-width:0.00030000000000000003;stroke-linecap:round;stroke-linejoin:round;stroke-miterlimit:10;} .st12{fill:#B7257F;stroke:#B7257F;stroke-width:0.00030000000000000003;stroke-linecap:round;stroke-linejoin:round;stroke-miterlimit:10;} .st13{fill:#5189E5;stroke:#5189E5;stroke-width:0.00030000000000000003;stroke-linecap:round;stroke-linejoin:round;stroke-miterlimit:10;} .st14{fill:#f4f5f6;stroke:#f4f5f6;stroke-width:0.00030000000000000003;stroke-linecap:round;stroke-linejoin:round;stroke-miterlimit:10;} .st15{fill:#EDD977;stroke:#EDD977;stroke-width:0.00030000000000000003;stroke-linecap:round;stroke-linejoin:round;stroke-miterlimit:10;} .st16{fill:#8C43FF;stroke:#8C43FF;stroke-width:0.00030000000000000003;stroke-linecap:round;stroke-linejoin:round;stroke-miterlimit:10;} .st17{fill:#5252BA;stroke:#5252BA;stroke-width:0.00030000000000000003;stroke-linecap:round;stroke-linejoin:round;stroke-miterlimit:10;} .st18{fill:none;stroke:#dedede;stroke-width:0.00030000000000000003;stroke-linecap:round;stroke-linejoin:round;stroke-miterlimit:10;} .st19{fill:#354C75;stroke:#354C75;stroke-width:0.00030000000000000003;stroke-linecap:round;stroke-linejoin:round;stroke-miterlimit:10;} </style> <path class="st3" d="M26.7,12.3c-2.1,0.4-4,0-4.7-1.3c-0.7-1.3-0.2-3.1,1.3-4.7c-1.3-1.3-3-2.2-4.8-2.8C17.8,5.6,16.5,7,15,7 s-2.8-1.4-3.5-3.5C9.7,4.1,8.1,5,6.8,6.3c1.5,1.6,2,3.5,1.3,4.7c-0.7,1.3-2.6,1.7-4.7,1.3C3.1,13.1,3,14.1,3,15s0.1,1.9,0.3,2.7 c2.1-0.4,4,0,4.7,1.3c0.7,1.3,0.2,3.1-1.3,4.7c1.3,1.3,3,2.2,4.8,2.8c0.7-2.1,2-3.5,3.5-3.5s2.8,1.4,3.5,3.5 c1.8-0.5,3.4-1.5,4.8-2.8c-1.5-1.6-2-3.5-1.3-4.7c0.7-1.3,2.6-1.7,4.7-1.3c0.2-0.9,0.3-1.8,0.3-2.7S26.9,13.1,26.7,12.3z"/> <circle class="st10" cx="15" cy="15" r="3"/> </g>
</svg>